<?xml version="1.0" encoding="UTF-8" standalone="no"?>
<!DOCTYPE svg PUBLIC "-//W3C//DTD SVG 1.1//EN"
 "http://www.w3.org/Graphics/SVG/1.1/DTD/svg11.dtd">
<!-- Generated by graphviz version 2.42.4 (0)
 -->
<!-- Title: ObserverStore Pages: 1 -->
<svg width="534pt" height="355pt"
 viewBox="0.00 0.00 534.00 355.00" xmlns="http://www.w3.org/2000/svg" xmlns:xlink="http://www.w3.org/1999/xlink">
<g id="graph0" class="graph" transform="scale(1 1) rotate(0) translate(4 351)">
<title>ObserverStore</title>
<polygon fill="white" stroke="transparent" points="-4,4 -4,-351 530,-351 530,4 -4,4"/>
<text text-anchor="middle" x="263" y="-333.4" font-family="Times,serif" font-size="12.00">Patrón Observador en una Tienda</text>
<!-- Observador -->
<g id="node1" class="node">
<title>Observador</title>
<polygon fill="none" stroke="black" points="22.5,-39.5 22.5,-75.5 110.5,-75.5 110.5,-39.5 22.5,-39.5"/>
<text text-anchor="middle" x="66.5" y="-53.8" font-family="Arial" font-size="14.00">Observador</text>
</g>
<!-- Sujeto -->
<g id="node2" class="node">
<title>Sujeto</title>
<polygon fill="none" stroke="black" points="421,-39.5 421,-75.5 476,-75.5 476,-39.5 421,-39.5"/>
<text text-anchor="middle" x="448.5" y="-53.8" font-family="Arial" font-size="14.00">Sujeto</text>
</g>
<!-- Producto -->
<g id="node3" class="node">
<title>Producto</title>
<polygon fill="none" stroke="black" points="198,-0.5 198,-114.5 369,-114.5 369,-0.5 198,-0.5"/>
<text text-anchor="middle" x="283.5" y="-99.3" font-family="Arial" font-size="14.00">Producto</text>
<polyline fill="none" stroke="black" points="198,-91.5 369,-91.5 "/>
<text text-anchor="start" x="206" y="-76.3" font-family="Arial" font-size="14.00">+ nombre: str</text>
<text text-anchor="start" x="206" y="-61.3" font-family="Arial" font-size="14.00">+ disponible: bool</text>
<text text-anchor="start" x="206" y="-46.3" font-family="Arial" font-size="14.00">+ clave: str</text>
<polyline fill="none" stroke="black" points="198,-38.5 369,-38.5 "/>
<text text-anchor="start" x="206" y="-23.3" font-family="Arial" font-size="14.00">+ marcar_disponible()</text>
<text text-anchor="start" x="206" y="-8.3" font-family="Arial" font-size="14.00">+ marcar_no_disponible()</text>
</g>
<!-- Cliente -->
<g id="node4" class="node">
<title>Cliente</title>
<polygon fill="none" stroke="black" points="0,-196.5 0,-295.5 157,-295.5 157,-196.5 0,-196.5"/>
<text text-anchor="middle" x="78.5" y="-280.3" font-family="Arial" font-size="14.00">Cliente</text>
<polyline fill="none" stroke="black" points="0,-272.5 157,-272.5 "/>
<text text-anchor="start" x="8" y="-257.3" font-family="Arial" font-size="14.00">− nombre: str</text>
<text text-anchor="start" x="8" y="-242.3" font-family="Arial" font-size="14.00">− correo: str</text>
<text text-anchor="start" x="8" y="-227.3" font-family="Arial" font-size="14.00">− notificaciones: list[str]</text>
<polyline fill="none" stroke="black" points="0,-219.5 157,-219.5 "/>
<text text-anchor="start" x="8" y="-204.3" font-family="Arial" font-size="14.00">+ actualizar(producto)</text>
</g>
<!-- Cliente&#45;&gt;Observador -->
<g id="edge1" class="edge">
<title>Cliente&#45;&gt;Observador</title>
<path fill="none" stroke="black" stroke-dasharray="5,2" d="M50.21,-196.18C42.96,-181.21 36.18,-164.36 32.5,-148 27.5,-125.77 37.6,-101.68 48.07,-84.1"/>
<polygon fill="none" stroke="black" points="51.1,-85.86 53.5,-75.54 45.19,-82.11 51.1,-85.86"/>
<text text-anchor="middle" x="68.5" y="-136.8" font-family="Arial" font-size="14.00">implementa</text>
</g>
<!-- Cliente&#45;&gt;Producto -->
<g id="edge5" class="edge">
<title>Cliente&#45;&gt;Producto</title>
<path fill="none" stroke="black" stroke-dasharray="1,5" d="M91.28,-196.46C98.92,-174.93 110.53,-150.54 127.5,-133 144.56,-115.37 166.63,-101.4 188.77,-90.55"/>
<polygon fill="black" stroke="black" points="190.35,-93.68 197.91,-86.25 187.37,-87.34 190.35,-93.68"/>
<text text-anchor="middle" x="187" y="-136.8" font-family="Arial" font-size="14.00">recibe actualización</text>
</g>
<!-- Tienda -->
<g id="node5" class="node">
<title>Tienda</title>
<polygon fill="none" stroke="black" points="221,-166.5 221,-325.5 526,-325.5 526,-166.5 221,-166.5"/>
<text text-anchor="middle" x="373.5" y="-310.3" font-family="Arial" font-size="14.00">Tienda</text>
<polyline fill="none" stroke="black" points="221,-302.5 526,-302.5 "/>
<text text-anchor="start" x="229" y="-287.3" font-family="Arial" font-size="14.00">− nombre: str</text>
<text text-anchor="start" x="229" y="-272.3" font-family="Arial" font-size="14.00">− suscripciones: dict[str, set[Observador]]</text>
<text text-anchor="start" x="229" y="-257.3" font-family="Arial" font-size="14.00">− productos: dict[str, Producto]</text>
<polyline fill="none" stroke="black" points="221,-249.5 526,-249.5 "/>
<text text-anchor="start" x="229" y="-234.3" font-family="Arial" font-size="14.00">+ registrar_producto(producto)</text>
<text text-anchor="start" x="229" y="-219.3" font-family="Arial" font-size="14.00">+ agregar_observador(producto, observador)</text>
<text text-anchor="start" x="229" y="-204.3" font-family="Arial" font-size="14.00">+ eliminar_observador(producto, observador)</text>
<text text-anchor="start" x="229" y="-189.3" font-family="Arial" font-size="14.00">+ notificar_observadores(producto)</text>
<text text-anchor="start" x="229" y="-174.3" font-family="Arial" font-size="14.00">+ actualizar_disponibilidad(producto, disponible)</text>
</g>
<!-- Tienda&#45;&gt;Observador -->
<g id="edge4" class="edge">
<title>Tienda&#45;&gt;Observador</title>
<path fill="none" stroke="black" d="M285.51,-166.25C265.56,-148.64 249.35,-134.61 246.5,-133 223.37,-119.93 214.29,-124.56 189.5,-115 163.22,-104.86 134.58,-91.83 111.55,-80.83"/>
<polygon fill="none" stroke="black" points="111.54,-80.83 104.4,-81.83 100.73,-75.62 107.87,-74.62 111.54,-80.83"/>
<text text-anchor="middle" x="303.5" y="-136.8" font-family="Arial" font-size="14.00">suscripciones</text>
</g>
<!-- Tienda&#45;&gt;Sujeto -->
<g id="edge2" class="edge">
<title>Tienda&#45;&gt;Sujeto</title>
<path fill="none" stroke="black" stroke-dasharray="5,2" d="M418.61,-166.4C421.47,-160.26 424.14,-154.08 426.5,-148 434.4,-127.68 440.12,-103.63 443.75,-85.59"/>
<polygon fill="none" stroke="black" points="447.19,-86.21 445.64,-75.73 440.32,-84.89 447.19,-86.21"/>
<text text-anchor="middle" x="467.5" y="-136.8" font-family="Arial" font-size="14.00">implementa</text>
</g>
<!-- Tienda&#45;&gt;Producto -->
<g id="edge3" class="edge">
<title>Tienda&#45;&gt;Producto</title>
<path fill="none" stroke="black" d="M363.74,-166.36C360.7,-154.82 356.72,-143.35 351.5,-133 350.12,-130.26 348.61,-127.55 347,-124.88"/>
<polygon fill="none" stroke="black" points="346.92,-124.76 340.28,-121.96 340.3,-114.75 346.95,-117.55 346.92,-124.76"/>
<text text-anchor="middle" x="383.5" y="-136.8" font-family="Arial" font-size="14.00">catálogo</text>
</g>
</g>
</svg>
